<svg xmlns="http://www.w3.org/2000/svg" viewBox="0 0 200 200" fill="none" shape-rendering="auto" width="512" height="512"><desc>"Fun Emoji Set" by "Davis Uche", licensed under "CC BY 4.0". / Remix of the original. - Created with dicebear.com</desc><metadata xmlns:dc="http://purl.org/dc/elements/1.1/" xmlns:cc="http://creativecommons.org/ns#" xmlns:rdf="http://www.w3.org/1999/02/22-rdf-syntax-ns#"><rdf:RDF><cc:Work><dc:title>Fun Emoji Set</dc:title><dc:creator><cc:Agent rdf:about="https://www.instagram.com/davedirect3/"><dc:title>Davis Uche</dc:title></cc:Agent></dc:creator><dc:source>https://www.figma.com/community/file/968125295144990435</dc:source><cc:license rdf:resource="https://creativecommons.org/licenses/by/4.0/" /></cc:Work></rdf:RDF></metadata><mask id="viewboxMask"><rect width="200" height="200" rx="0" ry="0" x="0" y="0" fill="#fff" /></mask><g mask="url(#viewboxMask)"><rect fill="#fcbc34" width="200" height="200" x="0" y="0" /><g transform="matrix(1.5625 0 0 1.5625 37.5 110.94)"><path fill-rule="evenodd" clip-rule="evenodd" d="M4 1c0 44 72 44 72 0-24.3 8.87-48.3 9.13-72 0Z" fill="#fff"/><path fill-rule="evenodd" clip-rule="evenodd" d="M11 21c14.35 15.8 43.35 16 58 .58A140.44 140.44 0 0 1 11 21Z" fill="#DDDBDB"/><path d="M40.04 35a40.08 40.08 0 0 1-25.36-8.46C7.08 20.37 3 11.54 3 1.07A1.07 1.07 0 0 1 3.45.2a1.08 1.08 0 0 1 .97-.12c22.91 8.8 46.85 8.8 71.12 0a1.05 1.05 0 0 1 1.46.99c0 10.47-4.02 19.3-11.68 25.47a40.14 40.14 0 0 1-25.28 8.45ZM5.18 2.58c.81 20.8 18.44 30.31 34.86 30.31 16.41 0 34.11-9.5 34.86-30.35-23.78 8.3-47.22 8.32-69.72.03Z" fill="#000"/><path d="M25 36c4.5 5.16 25.03 5.5 30 0a68.29 68.29 0 0 1-30 0Z" fill="#000" style="mix-blend-mode:soft-light" opacity=".4"/></g><g transform="matrix(1.5625 0 0 1.5625 31.25 59.38)"><path d="M75.76 21.94c-2.9.04-5.72-.89-8.04-2.63a13.47 13.47 0 0 1-4.85-7.03 1.75 1.75 0 0 1 .49-1.92 1.7 1.7 0 0 1 2.76.9c.6 2.12 1.88 3.98 3.62 5.29a9.84 9.84 0 0 0 6.04 1.98c2.17.01 4.29-.68 6.03-2a10.17 10.17 0 0 0 3.65-5.26c.15-.42.46-.75.85-.95a1.68 1.68 0 0 1 2.24.7c.21.38.27.83.17 1.26a13.48 13.48 0 0 1-4.87 7.04 13.17 13.17 0 0 1-8.08 2.62ZM13.76 21.94c-2.9.03-5.73-.9-8.06-2.65a13.54 13.54 0 0 1-4.85-7.06 1.78 1.78 0 0 1 .51-1.88 1.67 1.67 0 0 1 2.4.22c.15.17.25.38.32.6.62 2.1 1.9 3.96 3.64 5.28a9.93 9.93 0 0 0 6.02 2c2.18.03 4.3-.67 6.06-1.99a10.22 10.22 0 0 0 3.66-5.3 1.68 1.68 0 0 1 3.08-.25c.21.4.27.85.17 1.27a13.57 13.57 0 0 1-4.87 7.1 13.19 13.19 0 0 1-8.08 2.65Z" fill="#000"/></g></g></svg>